<svg xmlns="http://www.w3.org/2000/svg" viewBox="0 0 1200 1370" width="1200" height="1370">
  <defs>
    <marker id="arrowA" markerWidth="10" markerHeight="7" refX="9" refY="3.5" orient="auto">
      <polygon points="0 0, 10 3.5, 0 7" fill="#7c3aed"/>
    </marker>
    <marker id="arrowB" markerWidth="10" markerHeight="7" refX="9" refY="3.5" orient="auto">
      <polygon points="0 0, 10 3.5, 0 7" fill="#10b981"/>
    </marker>
    <marker id="arrowC" markerWidth="10" markerHeight="7" refX="9" refY="3.5" orient="auto">
      <polygon points="0 0, 10 3.5, 0 7" fill="#2563eb"/>
    </marker>
    <marker id="arrowE" markerWidth="10" markerHeight="7" refX="9" refY="3.5" orient="auto">
      <polygon points="0 0, 10 3.5, 0 7" fill="#f97316"/>
    </marker>
    <marker id="arrowF" markerWidth="10" markerHeight="7" refX="9" refY="3.5" orient="auto">
      <polygon points="0 0, 10 3.5, 0 7" fill="#7c3aed"/>
    </marker>
    <marker id="arrowG" markerWidth="10" markerHeight="7" refX="9" refY="3.5" orient="auto">
      <polygon points="0 0, 10 3.5, 0 7" fill="#ef4444"/>
    </marker>
    <marker id="arrowH" markerWidth="10" markerHeight="7" refX="9" refY="3.5" orient="auto">
      <polygon points="0 0, 10 3.5, 0 7" fill="#6b7280"/>
    </marker>
    <filter id="shadowSoft" x="-20%" y="-20%" width="140%" height="160%">
      <feDropShadow dx="0" dy="3" stdDeviation="6" flood-color="#0f172a" flood-opacity="0.12"/>
    </filter>
    <filter id="shadowGlass" x="-20%" y="-20%" width="140%" height="160%">
      <feDropShadow dx="0" dy="10" stdDeviation="16" flood-color="#020617" flood-opacity="0.28"/>
    </filter>
    <style>
    text { font-family: 'Helvetica Neue', Helvetica, Arial, 'PingFang SC', 'Microsoft YaHei', 'Microsoft JhengHei', 'SimHei', sans-serif; }
    .title { font-size: 30px; font-weight: 700; fill: #111827; }
    .subtitle { font-size: 14px; font-weight: 500; fill: #6b7280; }
    .section { font-size: 13px; font-weight: 700; fill: #2563eb; letter-spacing: 1.4px; }
    .section-sub { font-size: 12px; font-weight: 500; fill: #94a3b8; }
    .node-title { font-size: 18px; font-weight: 700; fill: #111827; }
    .node-sub { font-size: 12px; font-weight: 500; fill: #6b7280; }
    .node-type { font-size: 12px; font-weight: 700; fill: #9ca3af; letter-spacing: 0.08em; }
    .arrow-label { font-size: 12px; font-weight: 600; fill: #6b7280; }
    .legend { font-size: 12px; font-weight: 500; fill: #6b7280; }
    .footnote { font-size: 12px; font-weight: 500; fill: #94a3b8; }
    </style>
  </defs>
  <rect width="1200.0" height="1370.0" fill="#ffffff"/>
  <text x="600.0" y="56" text-anchor="middle" class="title">Spotlight 卡牌生命周期与墓地循环</text>
  <text x="600.0" y="82" text-anchor="middle" class="subtitle">玩家卡成功部署即进入墓地；战斗单位与卡牌记录互相独立，同一张卡可反复部署出多个满血单位</text>
  <rect x="60.0" y="160.0" width="1080.0" height="410.0" rx="16.0" fill="none" stroke="#dbe5f1" stroke-width="1.4" stroke-dasharray="6 5"/>
  <text x="78.0" y="184.0" class="section">循环区：卡牌记录唯一流转，总数恒定</text>
  <text x="78.0" y="204.0" class="section-sub">卡组 → 抽牌堆 → 手牌 → 墓地 →（抽牌堆耗尽）→ 洗回抽牌堆</text>
  <rect x="60.0" y="620.0" width="1080.0" height="310.0" rx="16.0" fill="none" stroke="#dbe5f1" stroke-width="1.4" stroke-dasharray="6 5"/>
  <text x="78.0" y="644.0" class="section">场地：战斗单位独立存在</text>
  <text x="78.0" y="664.0" class="section-sub">UnitState 只保存来源卡的值副本（SourceCardId / TypeId / Owner），不引用 CardRecord</text>
  <rect x="60.0" y="980.0" width="1080.0" height="210.0" rx="16.0" fill="none" stroke="#dbe5f1" stroke-width="1.4" stroke-dasharray="6 5"/>
  <text x="78.0" y="1004.0" class="section">Boss 独立回收区</text>
  <text x="78.0" y="1024.0" class="section-sub">Boss 单位阵亡进入独立回收区，不参与玩家洗回；本次只调整玩家机制</text>
  <path d="M 320.0,315.0 L 420.0,315.0" fill="none" stroke="#7c3aed" stroke-width="2.4" marker-end="url(#arrowA)"/>
  <path d="M 640.0,315.0 L 740.0,315.0" fill="none" stroke="#f97316" stroke-width="2.4" marker-end="url(#arrowE)"/>
  <path d="M 530.0,430.0 L 530.0,370.0" fill="none" stroke="#2563eb" stroke-width="2.4" marker-end="url(#arrowC)"/>
  <path d="M 850.0,370.0 L 850.0,485.0 L 640.0,485.0" fill="none" stroke="#10b981" stroke-width="2.4" marker-end="url(#arrowB)"/>
  <path d="M 960.0,315.0 L 1010.0,315.0 L 1010.0,595.0 L 290.0,595.0 L 280.0,700.0" fill="none" stroke="#7c3aed" stroke-width="2.4" marker-end="url(#arrowA)"/>
  <path d="M 420.0,760.0 L 500.0,760.0" fill="none" stroke="#6b7280" stroke-width="2.4" marker-end="url(#arrowH)" stroke-dasharray="6,4"/>
  <path d="M 780.0,760.0 L 880.0,760.0" fill="none" stroke="#6b7280" stroke-width="2.4" marker-end="url(#arrowH)"/>
  <rect x="100.0" y="260.0" width="220.0" height="110.0" rx="10.0" fill="#eff6ff" stroke="#2563eb" stroke-width="1.8"/>
  <text x="210.0" y="278.0" text-anchor="middle" class="node-type">开局配置</text>
  <text x="210.0" y="321.0" text-anchor="middle" class="node-title">卡组 Deck</text>
  <text x="210.0" y="343.0" text-anchor="middle" class="node-sub">卡种与数量清单</text>
  <rect x="420.0" y="260.0" width="220.0" height="110.0" rx="10.0" fill="#eff6ff" stroke="#2563eb" stroke-width="1.8"/>
  <text x="530.0" y="278.0" text-anchor="middle" class="node-type">运行时</text>
  <text x="530.0" y="321.0" text-anchor="middle" class="node-title">抽牌堆 DrawPile</text>
  <text x="530.0" y="343.0" text-anchor="middle" class="node-sub">玩家每回合抽牌来源</text>
  <rect x="740.0" y="260.0" width="220.0" height="110.0" rx="10.0" fill="#eff6ff" stroke="#2563eb" stroke-width="1.8"/>
  <text x="850.0" y="278.0" text-anchor="middle" class="node-type">运行时</text>
  <text x="850.0" y="321.0" text-anchor="middle" class="node-title">手牌 Hand</text>
  <text x="850.0" y="343.0" text-anchor="middle" class="node-sub">已抽到、未打出，不参与洗回</text>
  <rect x="420.0" y="430.0" width="220.0" height="110.0" rx="10.0" fill="#ecfdf5" stroke="#10b981" stroke-width="1.8"/>
  <text x="530.0" y="448.0" text-anchor="middle" class="node-type">运行时</text>
  <text x="530.0" y="491.0" text-anchor="middle" class="node-title">墓地 Graveyard</text>
  <text x="530.0" y="513.0" text-anchor="middle" class="node-sub">成功部署或弃置的玩家卡</text>
  <rect x="140.0" y="700.0" width="280.0" height="120.0" rx="10.0" fill="#f0fdfa" stroke="#0d9488" stroke-width="1.8"/>
  <text x="280.0" y="718.0" text-anchor="middle" class="node-type">UnitState · 满血</text>
  <text x="280.0" y="766.0" text-anchor="middle" class="node-title">战斗单位 A</text>
  <text x="280.0" y="788.0" text-anchor="middle" class="node-sub">Id · SourceCardId · TypeId · Owner</text>
  <rect x="500.0" y="700.0" width="280.0" height="120.0" rx="10.0" fill="#f0fdfa" stroke="#0d9488" stroke-width="1.8"/>
  <text x="640.0" y="718.0" text-anchor="middle" class="node-type">独立单位身份</text>
  <text x="640.0" y="766.0" text-anchor="middle" class="node-title">战斗单位 B（同一张卡）</text>
  <text x="640.0" y="788.0" text-anchor="middle" class="node-sub">位置、伤势、行动与 A 互不影响</text>
  <rect x="880.0" y="700.0" width="240.0" height="120.0" rx="10.0" fill="#fef2f2" stroke="#dc2626" stroke-width="1.8"/>
  <text x="1000.0" y="718.0" text-anchor="middle" class="node-type">只移除场上单位</text>
  <text x="1000.0" y="766.0" text-anchor="middle" class="node-title">离场：阵亡 / 被覆盖</text>
  <text x="1000.0" y="788.0" text-anchor="middle" class="node-sub">来源卡不重复回收</text>
  <rect x="140.0" y="1030.0" width="340.0" height="110.0" rx="10.0" fill="#fef2f2" stroke="#dc2626" stroke-width="1.8"/>
  <text x="310.0" y="1048.0" text-anchor="middle" class="node-type">BossGraveyard</text>
  <text x="310.0" y="1091.0" text-anchor="middle" class="node-title">Boss 回收区</text>
  <text x="310.0" y="1113.0" text-anchor="middle" class="node-sub">不进入玩家的抽牌堆或墓地</text>
  <rect x="342.0" y="285.0" width="56" height="20" rx="6" fill="#ffffff" opacity="0.94"/>
  <text x="370.0" y="299.0" text-anchor="middle" class="arrow-label">生成卡牌记录</text>
  <rect x="672.0" y="285.0" width="36" height="20" rx="6" fill="#ffffff" opacity="0.94"/>
  <text x="690.0" y="299.0" text-anchor="middle" class="arrow-label">抽牌</text>
  <rect x="487.5" y="384.0" width="49" height="20" rx="6" fill="#ffffff" opacity="0.94"/>
  <text x="512.0" y="398.0" text-anchor="middle" class="arrow-label">洗回抽牌堆</text>
  <text x="745.0" y="469.0" text-anchor="middle" class="arrow-label">部署 / 弃置入墓地</text>
  <rect x="615.0" y="565.0" width="70" height="20" rx="6" fill="#ffffff" opacity="0.94"/>
  <text x="650.0" y="579.0" text-anchor="middle" class="arrow-label">部署出满血新单位</text>
  <text x="460.0" y="734.0" text-anchor="middle" class="arrow-label">同一张卡</text>
  <text x="830.0" y="734.0" text-anchor="middle" class="arrow-label">阵亡/被覆盖</text>
  <line x1="42.0" y1="1220.0" x2="72.0" y2="1220.0" stroke="#7c3aed" stroke-width="2.4" marker-end="url(#arrowA)"/>
  <text x="82.0" y="1224.0" class="legend">主要流程与部署</text>
  <line x1="42.0" y1="1242.0" x2="72.0" y2="1242.0" stroke="#f97316" stroke-width="2.4" marker-end="url(#arrowE)"/>
  <text x="82.0" y="1246.0" class="legend">抽牌</text>
  <line x1="42.0" y1="1264.0" x2="72.0" y2="1264.0" stroke="#10b981" stroke-width="2.4" marker-end="url(#arrowB)"/>
  <text x="82.0" y="1268.0" class="legend">写入墓地</text>
  <line x1="42.0" y1="1286.0" x2="72.0" y2="1286.0" stroke="#2563eb" stroke-width="2.4" marker-end="url(#arrowC)"/>
  <text x="82.0" y="1290.0" class="legend">洗回抽牌堆</text>
  <line x1="42.0" y1="1308.0" x2="72.0" y2="1308.0" stroke="#6b7280" stroke-width="2.4" marker-end="url(#arrowH)"/>
  <text x="82.0" y="1312.0" class="legend">同一张卡 / 离场不回收</text>
  <text x="42.0" y="1330.0" class="footnote">Spotlight · 卡牌生命周期与墓地循环 · 由 fireworks-tech-graph Style 1 生成</text>
</svg>